<svg xmlns="http://www.w3.org/2000/svg" viewBox="0 0 64 64">
  <defs>
    <linearGradient id="g" x1="0" y1="0" x2="1" y2="1">
      <stop offset="0" stop-color="#0ea5e9"/>
      <stop offset="1" stop-color="#22d3ee"/>
    </linearGradient>
  </defs>
  <rect width="64" height="64" rx="12" fill="url(#g)"/>
  <g fill="#fff">
    <path d="M20 20h12a4 4 0 0 1 4 4v4h-6v-2h-8v12h8v-2h6v4a4 4 0 0 1-4 4H20a4 4 0 0 1-4-4V24a4 4 0 0 1 4-4z"/>
    <path d="M48 32a8 8 0 1 1-16 0 8 8 0 0 1 16 0zm-10 0a2 2 0 1 0 4 0 2 2 0 0 0-4 0z"/>
  </g>
</svg>

